<svg id="svg" version="1.1" xmlns="http://www.w3.org/2000/svg" xmlns:xlink="http://www.w3.org/1999/xlink" width="400" height="400" viewBox="0, 0, 400,400"><g id="svgg"><path id="path0" d="M29.400 50.000 C 29.264 50.220,28.713 50.400,28.176 50.400 C 27.639 50.400,27.200 50.580,27.200 50.800 C 27.200 51.020,26.660 51.200,26.000 51.200 C 25.340 51.200,24.800 51.380,24.800 51.600 C 24.800 51.820,24.260 52.000,23.600 52.000 C 22.940 52.000,22.400 52.180,22.400 52.400 C 22.400 52.620,22.040 52.800,21.600 52.800 C 21.160 52.800,20.800 52.980,20.800 53.200 C 20.800 53.420,20.440 53.600,20.000 53.600 C 19.560 53.600,19.200 53.780,19.200 54.000 C 19.200 54.220,18.840 54.400,18.400 54.400 C 17.960 54.400,17.600 54.580,17.600 54.800 C 17.600 55.020,17.312 55.200,16.960 55.200 C 16.609 55.200,15.817 55.740,15.200 56.400 C 14.583 57.060,13.973 57.600,13.844 57.600 C 13.093 57.600,7.600 63.093,7.600 63.844 C 7.600 63.973,7.060 64.583,6.400 65.200 C 5.740 65.817,5.200 66.609,5.200 66.960 C 5.200 67.312,5.020 67.600,4.800 67.600 C 4.580 67.600,4.400 67.960,4.400 68.400 C 4.400 68.840,4.220 69.200,4.000 69.200 C 3.780 69.200,3.600 69.560,3.600 70.000 C 3.600 70.440,3.420 70.800,3.200 70.800 C 2.980 70.800,2.800 71.160,2.800 71.600 C 2.800 72.040,2.620 72.400,2.400 72.400 C 2.180 72.400,2.000 72.940,2.000 73.600 C 2.000 74.260,1.820 74.800,1.600 74.800 C 1.380 74.800,1.200 75.325,1.200 75.967 C 1.200 76.608,0.975 77.208,0.700 77.300 C -0.035 77.545,-0.035 322.125,0.700 322.860 C 0.975 323.135,1.200 323.774,1.200 324.280 C 1.200 324.786,1.380 325.200,1.600 325.200 C 1.820 325.200,2.000 325.740,2.000 326.400 C 2.000 327.060,2.180 327.600,2.400 327.600 C 2.620 327.600,2.800 327.960,2.800 328.400 C 2.800 328.840,2.980 329.200,3.200 329.200 C 3.420 329.200,3.600 329.560,3.600 330.000 C 3.600 330.440,3.780 330.800,4.000 330.800 C 4.220 330.800,4.400 331.160,4.400 331.600 C 4.400 332.040,4.580 332.400,4.800 332.400 C 5.020 332.400,5.200 332.688,5.200 333.040 C 5.200 333.391,5.740 334.183,6.400 334.800 C 7.060 335.417,7.600 336.100,7.600 336.320 C 7.600 336.971,13.156 342.400,13.823 342.400 C 13.964 342.400,14.583 342.940,15.200 343.600 C 15.817 344.260,16.609 344.800,16.960 344.800 C 17.312 344.800,17.600 344.980,17.600 345.200 C 17.600 345.420,17.960 345.600,18.400 345.600 C 18.840 345.600,19.200 345.780,19.200 346.000 C 19.200 346.220,19.560 346.400,20.000 346.400 C 20.440 346.400,20.800 346.580,20.800 346.800 C 20.800 347.020,21.160 347.200,21.600 347.200 C 22.040 347.200,22.400 347.380,22.400 347.600 C 22.400 347.820,22.940 348.000,23.600 348.000 C 24.260 348.000,24.800 348.180,24.800 348.400 C 24.800 348.620,25.340 348.800,26.000 348.800 C 26.660 348.800,27.200 348.980,27.200 349.200 C 27.200 349.420,27.639 349.600,28.176 349.600 C 28.713 349.600,29.264 349.780,29.400 350.000 C 29.554 350.250,33.471 350.400,39.824 350.400 L 50.000 350.400 50.000 233.400 C 50.000 169.050,50.109 116.400,50.242 116.400 C 50.375 116.400,50.973 116.805,51.571 117.300 C 52.169 117.795,53.255 118.650,53.984 119.200 C 54.714 119.750,57.058 121.550,59.194 123.200 C 61.329 124.850,65.194 127.820,67.782 129.800 C 70.370 131.780,76.292 136.325,80.944 139.900 C 85.595 143.475,90.634 147.345,92.143 148.500 C 93.652 149.655,95.926 151.410,97.197 152.400 C 98.468 153.390,101.193 155.492,103.254 157.072 C 105.314 158.651,109.641 161.981,112.869 164.472 C 116.097 166.962,120.383 170.260,122.393 171.800 C 124.404 173.340,127.883 176.006,130.125 177.725 C 132.366 179.443,134.597 181.153,135.083 181.525 C 135.569 181.896,137.639 183.495,139.683 185.078 C 141.727 186.661,146.820 190.580,151.000 193.787 C 155.180 196.994,158.874 199.839,159.208 200.109 C 159.542 200.379,161.252 201.691,163.008 203.025 C 165.914 205.232,171.536 209.554,177.800 214.397 C 179.120 215.418,182.180 217.764,184.600 219.610 C 187.020 221.457,190.277 223.965,191.837 225.184 C 193.398 226.403,195.275 227.850,196.009 228.400 C 196.742 228.950,197.831 229.805,198.429 230.300 C 199.027 230.795,199.724 231.200,199.978 231.200 C 200.371 231.200,206.718 226.408,226.000 211.554 C 229.548 208.820,233.046 206.131,240.542 200.377 C 245.516 196.559,252.922 190.849,256.654 187.956 C 258.004 186.910,261.784 184.004,265.054 181.500 C 270.911 177.015,272.845 175.528,282.609 168.000 C 285.320 165.910,290.387 162.013,293.869 159.340 C 297.351 156.666,301.550 153.438,303.200 152.166 C 309.340 147.432,311.267 145.949,313.900 143.927 C 315.385 142.787,318.937 140.042,321.794 137.827 C 324.650 135.612,328.182 132.900,329.642 131.800 C 334.114 128.432,345.193 119.899,347.431 118.100 C 348.594 117.165,349.648 116.400,349.773 116.400 C 349.898 116.400,350.000 169.050,350.000 233.400 L 350.000 350.400 360.176 350.400 C 366.529 350.400,370.446 350.250,370.600 350.000 C 370.736 349.780,371.276 349.600,371.800 349.600 C 372.324 349.600,372.864 349.420,373.000 349.200 C 373.136 348.980,373.687 348.800,374.224 348.800 C 374.761 348.800,375.200 348.620,375.200 348.400 C 375.200 348.180,375.740 348.000,376.400 348.000 C 377.060 348.000,377.600 347.820,377.600 347.600 C 377.600 347.380,377.960 347.200,378.400 347.200 C 378.840 347.200,379.200 347.020,379.200 346.800 C 379.200 346.580,379.560 346.400,380.000 346.400 C 380.440 346.400,380.800 346.220,380.800 346.000 C 380.800 345.780,381.160 345.600,381.600 345.600 C 382.040 345.600,382.400 345.420,382.400 345.200 C 382.400 344.980,382.688 344.800,383.040 344.800 C 383.391 344.800,384.156 344.305,384.740 343.700 C 385.323 343.095,386.312 342.335,386.939 342.012 C 388.199 341.361,392.400 336.996,392.400 336.338 C 392.400 336.108,392.940 335.417,393.600 334.800 C 394.260 334.183,394.800 333.391,394.800 333.040 C 394.800 332.688,394.980 332.400,395.200 332.400 C 395.420 332.400,395.600 332.040,395.600 331.600 C 395.600 331.160,395.780 330.800,396.000 330.800 C 396.220 330.800,396.400 330.440,396.400 330.000 C 396.400 329.560,396.580 329.200,396.800 329.200 C 397.020 329.200,397.200 328.840,397.200 328.400 C 397.200 327.960,397.380 327.600,397.600 327.600 C 397.820 327.600,398.000 327.060,398.000 326.400 C 398.000 325.740,398.180 325.200,398.400 325.200 C 398.620 325.200,398.800 324.786,398.800 324.280 C 398.800 323.774,399.025 323.135,399.300 322.860 C 400.035 322.125,400.035 77.545,399.300 77.300 C 399.025 77.208,398.800 76.608,398.800 75.967 C 398.800 75.325,398.620 74.800,398.400 74.800 C 398.180 74.800,398.000 74.260,398.000 73.600 C 398.000 72.940,397.820 72.400,397.600 72.400 C 397.380 72.400,397.200 72.040,397.200 71.600 C 397.200 71.160,397.020 70.800,396.800 70.800 C 396.580 70.800,396.400 70.440,396.400 70.000 C 396.400 69.560,396.220 69.200,396.000 69.200 C 395.780 69.200,395.600 68.840,395.600 68.400 C 395.600 67.960,395.420 67.600,395.200 67.600 C 394.980 67.600,394.800 67.312,394.800 66.960 C 394.800 66.609,394.260 65.817,393.600 65.200 C 392.940 64.583,392.400 63.964,392.400 63.823 C 392.400 63.156,386.971 57.600,386.320 57.600 C 386.100 57.600,385.417 57.060,384.800 56.400 C 384.183 55.740,383.391 55.200,383.040 55.200 C 382.688 55.200,382.400 55.020,382.400 54.800 C 382.400 54.580,382.040 54.400,381.600 54.400 C 381.160 54.400,380.800 54.220,380.800 54.000 C 380.800 53.780,380.440 53.600,380.000 53.600 C 379.560 53.600,379.200 53.420,379.200 53.200 C 379.200 52.980,378.840 52.800,378.400 52.800 C 377.960 52.800,377.600 52.620,377.600 52.400 C 377.600 52.180,377.060 52.000,376.400 52.000 C 375.740 52.000,375.200 51.820,375.200 51.600 C 375.200 51.380,374.761 51.200,374.224 51.200 C 373.687 51.200,373.136 51.020,373.000 50.800 C 372.864 50.580,372.324 50.400,371.800 50.400 C 371.276 50.400,370.736 50.220,370.600 50.000 C 370.446 49.750,366.553 49.600,360.249 49.600 L 350.145 49.600 348.372 51.227 C 346.916 52.564,329.568 66.378,324.797 70.000 C 324.073 70.550,319.322 74.294,314.240 78.320 C 309.158 82.346,304.460 86.060,303.800 86.573 C 302.523 87.566,282.617 103.288,281.595 104.112 C 281.262 104.381,280.439 105.050,279.766 105.600 C 279.093 106.150,277.940 107.050,277.204 107.600 C 276.468 108.150,271.711 111.893,266.633 115.917 C 261.555 119.942,256.860 123.657,256.200 124.173 C 253.328 126.418,248.542 130.192,241.819 135.513 C 234.966 140.937,228.815 145.796,217.863 154.438 C 215.189 156.548,210.242 160.463,206.870 163.138 C 199.802 168.744,199.734 168.762,196.554 165.813 C 196.309 165.586,193.429 163.288,190.154 160.706 C 186.880 158.124,180.420 153.025,175.800 149.374 C 171.180 145.724,166.399 141.969,165.176 141.030 C 163.953 140.091,162.603 139.031,162.176 138.674 C 161.534 138.137,150.847 129.686,140.200 121.296 C 138.880 120.256,137.591 119.224,137.336 119.002 C 137.081 118.781,132.523 115.180,127.206 111.000 C 121.889 106.820,112.991 99.800,107.433 95.400 C 101.875 91.000,96.723 86.950,95.985 86.400 C 95.247 85.850,94.094 84.941,93.422 84.379 C 91.602 82.859,73.221 68.327,71.946 67.400 C 68.126 64.623,50.400 50.292,50.400 49.980 C 50.400 49.452,29.726 49.472,29.400 50.000 " stroke="none" fill="#f34434" fill-rule="evenodd"></path><path id="path1" d="M51.011 50.017 C 51.236 50.381,59.373 57.012,62.633 59.486 C 63.275 59.974,64.250 60.731,64.800 61.168 C 70.586 65.772,84.576 76.821,85.605 77.600 C 86.332 78.150,87.123 78.783,87.363 79.006 C 87.604 79.229,88.610 80.034,89.600 80.795 C 90.590 81.557,91.490 82.282,91.600 82.408 C 91.710 82.534,92.970 83.522,94.400 84.603 C 97.810 87.181,105.130 92.981,106.404 94.116 C 106.957 94.607,108.037 95.449,108.804 95.985 C 109.572 96.522,110.290 97.065,110.400 97.192 C 110.510 97.319,112.964 99.254,115.852 101.492 C 118.741 103.731,121.351 105.796,121.652 106.081 C 121.954 106.366,122.859 107.092,123.665 107.694 C 124.471 108.296,125.371 109.022,125.665 109.307 C 125.959 109.593,126.830 110.264,127.600 110.800 C 128.370 111.336,129.241 112.007,129.535 112.293 C 129.829 112.578,130.729 113.303,131.535 113.904 C 132.341 114.504,133.090 115.095,133.200 115.217 C 133.310 115.339,135.020 116.685,137.000 118.208 C 138.980 119.731,140.690 121.077,140.800 121.199 C 140.910 121.321,141.809 122.046,142.799 122.810 C 143.788 123.575,144.868 124.416,145.199 124.681 C 146.373 125.621,152.714 130.619,154.230 131.800 C 155.077 132.460,157.687 134.530,160.031 136.400 C 162.374 138.270,164.880 140.250,165.599 140.800 C 166.318 141.350,167.219 142.070,167.600 142.400 C 167.981 142.730,168.889 143.450,169.618 144.000 C 170.347 144.550,171.493 145.450,172.166 146.000 C 173.596 147.169,172.910 146.626,181.000 152.990 C 184.520 155.759,187.671 158.244,188.001 158.512 C 188.332 158.781,189.411 159.630,190.400 160.400 C 191.389 161.170,192.468 162.017,192.799 162.282 C 197.561 166.097,199.592 167.600,199.983 167.600 C 200.370 167.600,206.915 162.782,207.600 161.992 C 207.710 161.865,208.428 161.322,209.196 160.785 C 209.963 160.249,211.043 159.403,211.596 158.906 C 212.606 157.996,223.906 149.064,226.403 147.200 C 227.845 146.123,230.075 144.342,230.400 144.006 C 230.510 143.893,231.410 143.172,232.400 142.406 C 233.390 141.639,234.470 140.791,234.800 140.522 C 236.061 139.493,249.941 128.552,251.192 127.600 C 251.915 127.050,252.827 126.330,253.220 126.000 C 254.453 124.962,255.348 124.243,257.200 122.800 C 258.189 122.030,259.358 121.102,259.799 120.738 C 260.239 120.373,263.390 117.894,266.800 115.229 C 270.210 112.564,273.271 110.162,273.601 109.892 C 273.932 109.621,275.011 108.770,276.000 108.000 C 276.989 107.230,278.158 106.302,278.599 105.939 C 279.039 105.575,281.380 103.715,283.800 101.805 C 286.220 99.895,288.560 98.030,289.000 97.660 C 289.440 97.291,290.430 96.550,291.200 96.013 C 291.970 95.477,292.870 94.751,293.200 94.400 C 293.530 94.049,294.430 93.329,295.200 92.800 C 295.970 92.271,296.690 91.737,296.800 91.613 C 297.068 91.310,299.148 89.633,300.785 88.400 C 302.125 87.390,306.317 84.085,307.808 82.862 C 308.252 82.498,309.272 81.708,310.073 81.106 C 310.875 80.504,311.771 79.778,312.065 79.493 C 312.359 79.207,313.230 78.538,314.000 78.006 C 314.770 77.474,315.490 76.932,315.600 76.802 C 315.804 76.562,319.024 73.973,321.824 71.800 C 322.674 71.140,325.287 69.070,327.631 67.200 C 329.974 65.330,332.484 63.350,333.209 62.800 C 334.502 61.819,338.817 58.436,340.000 57.476 C 340.330 57.208,341.404 56.361,342.386 55.594 C 343.368 54.828,344.538 53.869,344.986 53.464 C 345.434 53.059,346.565 52.173,347.500 51.496 C 348.435 50.819,349.200 50.115,349.200 49.932 C 349.200 49.749,282.049 49.600,199.976 49.600 C 96.482 49.600,50.832 49.728,51.011 50.017 M50.400 233.776 L 50.400 350.400 200.000 350.400 C 289.553 350.400,349.600 350.254,349.600 350.036 C 349.600 349.836,347.485 348.002,344.900 345.959 C 342.315 343.917,338.490 340.878,336.400 339.206 C 334.310 337.533,332.118 335.813,331.530 335.382 C 330.941 334.952,325.006 330.280,318.342 325.000 C 303.784 313.467,286.540 299.833,285.312 298.885 C 283.889 297.786,264.195 282.240,250.867 271.694 C 244.120 266.355,236.827 260.595,234.660 258.894 C 230.549 255.666,220.240 247.518,219.200 246.675 C 218.870 246.408,217.797 245.561,216.815 244.794 C 215.833 244.028,213.555 242.230,211.754 240.800 C 203.588 234.318,201.685 232.860,200.004 231.801 C 198.282 230.715,193.216 226.924,192.800 226.409 C 192.690 226.273,191.970 225.729,191.200 225.200 C 190.430 224.671,189.710 224.139,189.600 224.018 C 189.490 223.897,188.321 222.988,187.003 221.999 C 183.627 219.465,175.840 213.462,175.600 213.209 C 175.490 213.093,174.320 212.189,173.000 211.200 C 171.680 210.211,170.510 209.303,170.400 209.182 C 170.290 209.061,169.570 208.523,168.800 207.986 C 168.030 207.450,167.130 206.787,166.800 206.512 C 166.470 206.237,163.950 204.297,161.200 202.200 C 158.450 200.103,155.926 198.166,155.591 197.894 C 155.256 197.622,153.906 196.590,152.591 195.600 C 151.276 194.610,150.004 193.620,149.763 193.400 C 149.523 193.180,148.734 192.550,148.010 192.000 C 147.286 191.450,146.330 190.685,145.885 190.300 C 145.441 189.915,144.968 189.600,144.835 189.600 C 144.701 189.600,144.142 189.195,143.592 188.700 C 143.042 188.205,140.704 186.373,138.396 184.630 C 132.385 180.088,129.030 177.494,128.800 177.209 C 128.690 177.073,127.970 176.523,127.200 175.986 C 126.430 175.450,125.530 174.787,125.200 174.512 C 124.870 174.237,121.990 172.020,118.800 169.584 C 115.610 167.148,112.640 164.848,112.200 164.472 C 111.760 164.096,110.770 163.350,110.000 162.814 C 109.230 162.277,108.510 161.739,108.400 161.618 C 108.290 161.497,107.120 160.589,105.800 159.600 C 104.480 158.611,103.310 157.711,103.200 157.599 C 103.090 157.487,102.292 156.856,101.427 156.198 C 100.561 155.539,98.923 154.280,97.786 153.400 C 96.648 152.520,93.846 150.377,91.559 148.638 C 86.501 144.792,84.265 143.065,84.000 142.799 C 83.890 142.688,82.720 141.789,81.400 140.800 C 80.080 139.811,78.910 138.902,78.800 138.779 C 78.690 138.656,75.990 136.591,72.800 134.190 C 69.610 131.789,66.910 129.729,66.800 129.611 C 66.690 129.494,65.520 128.589,64.200 127.600 C 62.880 126.611,61.710 125.712,61.600 125.601 C 61.490 125.490,60.680 124.848,59.800 124.173 C 53.736 119.522,51.336 117.709,50.900 117.450 C 50.500 117.212,50.400 140.586,50.400 233.776 " stroke="none" fill="#ebebf3" fill-rule="evenodd"></path><path id="path2" d="M50.400 49.902 C 50.400 50.270,67.624 64.259,71.946 67.400 C 73.221 68.327,91.602 82.859,93.422 84.379 C 94.094 84.941,95.246 85.850,95.982 86.400 C 96.718 86.950,99.498 89.133,102.160 91.250 C 104.822 93.368,107.079 95.029,107.176 94.941 C 107.272 94.854,106.912 94.438,106.376 94.017 C 105.839 93.597,103.510 91.749,101.200 89.911 C 98.890 88.073,95.830 85.684,94.400 84.603 C 92.970 83.522,91.710 82.534,91.600 82.408 C 91.490 82.282,90.590 81.557,89.600 80.795 C 88.610 80.034,87.604 79.229,87.363 79.006 C 87.123 78.783,86.332 78.150,85.605 77.600 C 84.576 76.821,70.586 65.772,64.800 61.168 C 64.250 60.731,63.274 59.974,62.632 59.486 C 59.493 57.104,52.854 51.745,51.700 50.663 C 50.985 49.992,50.400 49.649,50.400 49.902 M349.200 49.866 C 349.200 50.085,348.435 50.819,347.500 51.496 C 346.565 52.173,345.434 53.059,344.986 53.464 C 344.538 53.869,343.368 54.828,342.386 55.594 C 341.404 56.361,340.330 57.208,340.000 57.476 C 338.817 58.436,334.502 61.819,333.209 62.800 C 332.107 63.636,329.021 66.082,321.926 71.743 C 321.335 72.214,319.676 73.500,318.240 74.600 C 316.804 75.700,315.623 76.757,315.615 76.948 C 315.607 77.140,316.365 76.680,317.300 75.928 C 320.900 73.029,323.512 70.961,324.787 70.000 C 327.323 68.089,346.610 52.810,348.200 51.452 C 349.080 50.701,349.665 49.947,349.500 49.776 C 349.335 49.606,349.200 49.646,349.200 49.866 M313.800 78.104 C 313.140 78.587,312.359 79.214,312.065 79.497 C 311.771 79.780,310.875 80.504,310.073 81.106 C 309.272 81.708,308.252 82.498,307.808 82.862 C 306.317 84.085,302.125 87.390,300.785 88.400 C 299.148 89.633,297.068 91.310,296.800 91.613 C 296.690 91.737,295.970 92.271,295.200 92.800 C 294.430 93.329,293.530 94.049,293.200 94.400 C 292.870 94.751,291.970 95.477,291.200 96.013 C 290.430 96.550,289.440 97.291,289.000 97.660 C 288.560 98.030,286.220 99.895,283.800 101.805 C 281.380 103.715,279.039 105.575,278.599 105.939 C 278.158 106.302,276.989 107.230,276.000 108.000 C 275.011 108.770,273.932 109.621,273.601 109.892 C 273.271 110.162,270.210 112.564,266.800 115.229 C 263.390 117.894,260.239 120.373,259.799 120.738 C 259.358 121.102,258.189 122.030,257.200 122.800 C 255.348 124.243,254.453 124.962,253.220 126.000 C 252.827 126.330,251.915 127.050,251.192 127.600 C 249.941 128.552,236.061 139.493,234.800 140.522 C 234.470 140.791,233.390 141.639,232.400 142.406 C 231.410 143.172,230.510 143.893,230.400 144.006 C 230.075 144.342,227.845 146.123,226.403 147.200 C 225.331 148.000,216.701 154.779,211.624 158.808 C 211.088 159.234,210.728 159.654,210.824 159.743 C 210.921 159.831,213.700 157.763,217.000 155.146 C 220.300 152.529,225.610 148.327,228.800 145.807 C 231.990 143.288,237.848 138.655,241.819 135.513 C 248.542 130.192,253.328 126.418,256.200 124.173 C 256.860 123.657,261.555 119.942,266.633 115.917 C 271.711 111.893,276.468 108.150,277.204 107.600 C 277.940 107.050,279.093 106.150,279.766 105.600 C 280.439 105.050,281.262 104.381,281.595 104.112 C 282.603 103.300,302.512 87.575,303.800 86.573 C 309.144 82.418,315.200 77.537,315.200 77.385 C 315.200 77.103,315.092 77.158,313.800 78.104 M107.695 95.431 C 107.827 95.644,110.155 97.569,112.867 99.708 C 121.983 106.897,136.594 118.429,137.205 118.917 C 138.227 119.732,142.196 122.868,152.000 130.606 C 157.170 134.686,161.749 138.317,162.176 138.674 C 162.603 139.031,163.953 140.091,165.176 141.030 C 166.399 141.969,171.180 145.724,175.800 149.374 C 180.420 153.025,186.880 158.124,190.154 160.706 C 193.429 163.288,196.309 165.586,196.554 165.813 C 197.626 166.807,199.573 168.000,200.122 168.000 C 200.680 168.000,210.400 160.565,210.400 160.139 C 210.400 159.948,207.989 161.544,207.600 161.992 C 206.915 162.782,200.370 167.600,199.983 167.600 C 199.592 167.600,197.561 166.097,192.799 162.282 C 192.468 162.017,191.389 161.170,190.400 160.400 C 189.411 159.630,188.332 158.781,188.001 158.512 C 187.671 158.244,184.520 155.759,181.000 152.990 C 172.910 146.626,173.596 147.169,172.166 146.000 C 171.493 145.450,170.347 144.550,169.618 144.000 C 168.889 143.450,167.981 142.730,167.600 142.400 C 167.219 142.070,166.318 141.350,165.599 140.800 C 164.880 140.250,162.374 138.270,160.031 136.400 C 157.687 134.530,155.077 132.460,154.230 131.800 C 152.714 130.619,146.373 125.621,145.199 124.681 C 144.868 124.416,143.788 123.575,142.799 122.810 C 141.809 122.046,140.910 121.321,140.800 121.199 C 140.690 121.077,138.980 119.731,137.000 118.208 C 135.020 116.685,133.310 115.339,133.200 115.217 C 133.090 115.095,132.341 114.504,131.535 113.904 C 130.729 113.303,129.829 112.578,129.535 112.293 C 129.241 112.007,128.370 111.336,127.600 110.800 C 126.830 110.264,125.959 109.593,125.665 109.307 C 125.371 109.022,124.471 108.296,123.665 107.694 C 122.859 107.092,121.954 106.366,121.652 106.081 C 121.351 105.796,118.741 103.731,115.852 101.492 C 112.964 99.254,110.510 97.319,110.400 97.192 C 109.967 96.692,107.470 95.067,107.695 95.431 M50.099 233.500 L 50.198 350.600 50.399 233.867 L 50.600 117.134 54.400 120.036 C 59.963 124.284,61.377 125.377,61.600 125.601 C 61.710 125.712,62.880 126.611,64.200 127.600 C 65.520 128.589,66.690 129.494,66.800 129.611 C 66.910 129.729,69.610 131.789,72.800 134.190 C 75.990 136.591,78.690 138.656,78.800 138.779 C 78.910 138.902,80.080 139.811,81.400 140.800 C 82.720 141.789,83.890 142.688,84.000 142.799 C 84.265 143.065,86.501 144.792,91.559 148.638 C 93.846 150.377,96.648 152.520,97.786 153.400 C 98.923 154.280,100.561 155.539,101.427 156.198 C 102.292 156.856,103.090 157.487,103.200 157.599 C 103.310 157.711,104.480 158.611,105.800 159.600 C 107.120 160.589,108.290 161.497,108.400 161.618 C 108.510 161.739,109.230 162.277,110.000 162.814 C 110.770 163.350,111.760 164.096,112.200 164.472 C 112.640 164.848,115.610 167.148,118.800 169.584 C 121.990 172.020,124.870 174.237,125.200 174.512 C 125.530 174.787,126.430 175.450,127.200 175.986 C 127.970 176.523,128.690 177.073,128.800 177.209 C 129.001 177.458,131.159 179.132,137.800 184.189 C 139.780 185.697,141.625 187.103,141.900 187.314 C 142.175 187.525,142.400 187.590,142.400 187.457 C 142.400 187.241,138.712 184.243,135.195 181.600 C 134.463 181.050,132.105 179.250,129.956 177.600 C 127.807 175.950,124.404 173.340,122.393 171.800 C 120.383 170.260,116.097 166.962,112.869 164.472 C 109.641 161.981,105.314 158.651,103.254 157.072 C 101.193 155.492,98.468 153.390,97.197 152.400 C 95.926 151.410,93.652 149.655,92.143 148.500 C 90.634 147.345,85.595 143.475,80.944 139.900 C 76.292 136.325,70.370 131.780,67.782 129.800 C 65.194 127.820,61.329 124.850,59.194 123.200 C 57.058 121.550,54.714 119.750,53.984 119.200 C 53.255 118.650,52.169 117.795,51.571 117.300 C 50.973 116.805,50.375 116.400,50.242 116.400 C 50.109 116.400,50.045 169.095,50.099 233.500 M347.359 118.121 C 345.377 119.752,335.007 127.759,329.642 131.800 C 328.182 132.900,324.650 135.612,321.794 137.827 C 318.937 140.042,315.340 142.822,313.800 144.005 C 310.937 146.203,308.497 148.083,303.200 152.166 C 301.550 153.438,297.351 156.666,293.869 159.340 C 290.387 162.013,285.320 165.910,282.609 168.000 C 272.845 175.528,270.911 177.015,265.054 181.500 C 261.784 184.004,258.004 186.910,256.654 187.956 C 252.922 190.849,245.516 196.559,240.542 200.377 C 233.046 206.131,229.548 208.820,226.000 211.554 C 206.718 226.408,200.371 231.200,199.978 231.200 C 199.724 231.200,199.027 230.795,198.429 230.300 C 197.831 229.805,196.742 228.950,196.009 228.400 C 195.275 227.850,193.398 226.403,191.837 225.184 C 190.277 223.965,187.020 221.457,184.600 219.610 C 182.180 217.764,179.120 215.418,177.800 214.397 C 171.536 209.554,165.914 205.232,163.008 203.025 C 161.252 201.691,159.542 200.380,159.208 200.111 C 157.708 198.904,144.886 189.039,143.900 188.333 C 143.295 187.900,142.801 187.693,142.803 187.873 C 142.804 188.053,143.479 188.650,144.303 189.199 C 145.126 189.749,145.996 190.379,146.237 190.599 C 146.477 190.820,147.270 191.450,148.000 192.000 C 148.730 192.550,149.523 193.180,149.763 193.400 C 150.004 193.620,151.276 194.610,152.591 195.600 C 153.906 196.590,155.256 197.622,155.591 197.894 C 155.926 198.166,158.450 200.103,161.200 202.200 C 163.950 204.297,166.470 206.237,166.800 206.512 C 167.130 206.787,168.030 207.450,168.800 207.986 C 169.570 208.523,170.290 209.061,170.400 209.182 C 170.510 209.303,171.680 210.211,173.000 211.200 C 174.320 212.189,175.490 213.093,175.600 213.209 C 175.840 213.462,183.627 219.465,187.003 221.999 C 188.321 222.988,189.490 223.897,189.600 224.018 C 189.710 224.139,190.430 224.671,191.200 225.200 C 191.970 225.729,192.690 226.273,192.800 226.409 C 193.216 226.924,198.282 230.715,200.004 231.801 C 201.685 232.860,203.588 234.318,211.754 240.800 C 213.555 242.230,215.833 244.028,216.815 244.794 C 217.797 245.561,218.870 246.408,219.200 246.675 C 220.240 247.518,230.549 255.666,234.660 258.894 C 236.827 260.595,244.120 266.355,250.867 271.694 C 264.195 282.240,283.889 297.786,285.312 298.885 C 286.540 299.833,303.784 313.467,318.342 325.000 C 325.006 330.280,330.941 334.952,331.530 335.382 C 332.118 335.813,334.310 337.533,336.400 339.206 C 338.490 340.878,342.302 343.907,344.871 345.936 C 347.440 347.966,349.631 349.845,349.739 350.113 C 349.848 350.381,349.951 297.905,349.968 233.500 C 349.986 169.095,349.865 116.409,349.700 116.421 C 349.535 116.432,348.482 117.197,347.359 118.121 " stroke="none" fill="#ccdbdc" fill-rule="evenodd"></path></g></svg>