<svg id="svg" version="1.1" xmlns="http://www.w3.org/2000/svg" xmlns:xlink="http://www.w3.org/1999/xlink" width="400" height="400" viewBox="0, 0, 400,400"><g id="svgg"><path id="path0" d="M102.200 75.981 C 70.896 84.220,66.440 125.685,95.347 139.748 C 126.420 154.866,157.449 118.518,137.988 89.800 C 130.297 78.451,115.104 72.585,102.200 75.981 M256.000 155.236 C 237.210 156.689,223.979 163.210,215.290 175.300 C 213.320 178.042,213.200 177.817,213.200 171.377 C 213.200 157.319,213.781 157.621,186.687 157.609 C 162.956 157.599,163.268 157.549,161.157 161.684 C 160.422 163.125,160.400 165.421,160.400 241.290 C 160.400 329.143,160.095 320.731,163.379 323.390 L 164.874 324.600 186.037 324.710 C 208.710 324.828,208.252 324.863,210.541 322.853 C 212.702 320.955,212.582 323.413,212.814 276.000 C 213.026 232.538,213.035 232.171,213.916 228.400 C 218.552 208.560,228.553 199.581,244.887 200.594 C 257.226 201.359,265.554 209.027,268.351 222.200 C 268.585 223.300,268.993 225.010,269.259 226.000 C 269.616 227.332,269.801 239.772,269.971 273.800 L 270.200 319.800 271.196 321.273 C 271.745 322.083,272.912 323.213,273.791 323.783 L 275.390 324.819 297.458 324.710 L 319.526 324.600 321.035 323.379 C 324.430 320.630,324.184 323.663,324.321 282.800 C 324.508 226.668,323.816 212.532,320.198 198.600 C 319.170 194.638,317.895 190.624,317.537 190.220 C 317.351 190.011,317.200 189.609,317.200 189.327 C 317.200 189.046,316.442 187.237,315.515 185.307 C 306.323 166.171,292.078 157.093,268.278 155.206 C 262.663 154.761,262.128 154.762,256.000 155.236 M88.558 158.363 C 86.548 159.276,85.336 160.499,84.361 162.600 C 83.327 164.826,83.167 317.265,84.195 319.728 C 86.298 324.760,86.864 324.866,110.800 324.722 L 131.000 324.600 132.630 323.493 C 133.527 322.884,134.697 321.624,135.230 320.693 L 136.200 319.000 136.200 241.600 C 136.200 199.030,136.062 163.708,135.894 163.107 C 135.449 161.516,133.250 159.185,131.403 158.346 C 128.912 157.214,91.055 157.229,88.558 158.363 " stroke="none" fill="#ffffff" fill-rule="evenodd"></path><path id="path1" d="M43.100 0.292 C 42.055 0.375,41.200 0.614,41.200 0.822 C 41.200 1.030,40.480 1.200,39.600 1.200 C 38.720 1.200,38.000 1.380,38.000 1.600 C 38.000 1.820,37.460 2.000,36.800 2.000 C 36.140 2.000,35.600 2.180,35.600 2.400 C 35.600 2.620,35.251 2.800,34.824 2.800 C 34.397 2.800,33.936 2.980,33.800 3.200 C 33.664 3.420,33.113 3.600,32.576 3.600 C 32.039 3.600,31.600 3.780,31.600 4.000 C 31.600 4.220,31.240 4.400,30.800 4.400 C 30.360 4.400,30.000 4.546,30.000 4.725 C 30.000 4.904,29.370 5.298,28.600 5.600 C 27.830 5.902,27.200 6.296,27.200 6.475 C 27.200 6.654,26.880 6.800,26.488 6.800 C 26.097 6.800,25.517 7.160,25.200 7.600 C 24.883 8.040,24.369 8.400,24.059 8.400 C 23.748 8.400,23.203 8.734,22.847 9.143 C 22.491 9.551,21.775 10.020,21.255 10.184 C 20.024 10.573,10.573 20.024,10.184 21.255 C 10.020 21.775,9.551 22.491,9.143 22.847 C 8.734 23.203,8.400 23.748,8.400 24.059 C 8.400 24.369,8.040 24.883,7.600 25.200 C 7.160 25.517,6.800 26.097,6.800 26.488 C 6.800 26.880,6.654 27.200,6.475 27.200 C 6.296 27.200,5.902 27.830,5.600 28.600 C 5.298 29.370,4.904 30.000,4.725 30.000 C 4.546 30.000,4.400 30.360,4.400 30.800 C 4.400 31.240,4.220 31.600,4.000 31.600 C 3.780 31.600,3.600 32.039,3.600 32.576 C 3.600 33.113,3.420 33.664,3.200 33.800 C 2.980 33.936,2.800 34.397,2.800 34.824 C 2.800 35.251,2.620 35.600,2.400 35.600 C 2.180 35.600,2.000 36.140,2.000 36.800 C 2.000 37.460,1.820 38.000,1.600 38.000 C 1.380 38.000,1.200 38.705,1.200 39.567 C 1.200 40.464,0.987 41.204,0.700 41.300 C -0.036 41.545,-0.036 358.455,0.700 358.700 C 0.987 358.796,1.200 359.536,1.200 360.433 C 1.200 361.295,1.380 362.000,1.600 362.000 C 1.820 362.000,2.000 362.540,2.000 363.200 C 2.000 363.860,2.180 364.400,2.400 364.400 C 2.620 364.400,2.800 364.749,2.800 365.176 C 2.800 365.603,2.980 366.064,3.200 366.200 C 3.420 366.336,3.600 366.887,3.600 367.424 C 3.600 367.961,3.780 368.400,4.000 368.400 C 4.220 368.400,4.400 368.760,4.400 369.200 C 4.400 369.640,4.580 370.000,4.800 370.000 C 5.020 370.000,5.200 370.360,5.200 370.800 C 5.200 371.240,5.336 371.600,5.502 371.600 C 5.669 371.600,6.060 372.185,6.372 372.900 C 6.684 373.615,7.268 374.491,7.670 374.847 C 8.071 375.203,8.400 375.722,8.400 376.000 C 8.400 376.278,8.734 376.797,9.143 377.153 C 9.551 377.509,10.016 378.213,10.175 378.718 C 10.505 379.762,18.676 388.134,20.800 389.605 C 21.570 390.138,22.438 390.805,22.729 391.087 C 23.019 391.369,23.565 391.600,23.940 391.600 C 24.316 391.600,24.883 391.960,25.200 392.400 C 25.517 392.840,26.097 393.200,26.488 393.200 C 26.880 393.200,27.200 393.346,27.200 393.525 C 27.200 393.704,27.830 394.098,28.600 394.400 C 29.370 394.702,30.000 395.096,30.000 395.275 C 30.000 395.454,30.360 395.600,30.800 395.600 C 31.240 395.600,31.600 395.780,31.600 396.000 C 31.600 396.220,32.039 396.400,32.576 396.400 C 33.113 396.400,33.664 396.580,33.800 396.800 C 33.936 397.020,34.397 397.200,34.824 397.200 C 35.251 397.200,35.600 397.380,35.600 397.600 C 35.600 397.820,36.140 398.000,36.800 398.000 C 37.460 398.000,38.000 398.180,38.000 398.400 C 38.000 398.620,38.705 398.800,39.567 398.800 C 40.464 398.800,41.204 399.013,41.300 399.300 C 41.545 400.036,358.455 400.036,358.700 399.300 C 358.796 399.013,359.536 398.800,360.433 398.800 C 361.295 398.800,362.000 398.620,362.000 398.400 C 362.000 398.180,362.540 398.000,363.200 398.000 C 363.860 398.000,364.400 397.820,364.400 397.600 C 364.400 397.380,364.749 397.200,365.176 397.200 C 365.603 397.200,366.064 397.020,366.200 396.800 C 366.336 396.580,366.887 396.400,367.424 396.400 C 367.961 396.400,368.400 396.220,368.400 396.000 C 368.400 395.780,368.760 395.600,369.200 395.600 C 369.640 395.600,370.000 395.420,370.000 395.200 C 370.000 394.980,370.360 394.800,370.800 394.800 C 371.240 394.800,371.600 394.664,371.600 394.498 C 371.600 394.331,372.185 393.940,372.900 393.628 C 373.615 393.316,374.491 392.732,374.847 392.330 C 375.203 391.929,375.760 391.600,376.085 391.600 C 376.410 391.600,377.199 391.150,377.838 390.600 C 378.477 390.051,379.143 389.601,379.317 389.600 C 379.796 389.600,388.497 380.804,389.606 379.200 C 390.138 378.430,390.805 377.562,391.087 377.271 C 391.369 376.981,391.600 376.462,391.600 376.118 C 391.600 375.775,391.929 375.203,392.330 374.847 C 392.732 374.491,393.316 373.615,393.628 372.900 C 393.940 372.185,394.331 371.600,394.498 371.600 C 394.664 371.600,394.800 371.240,394.800 370.800 C 394.800 370.360,394.980 370.000,395.200 370.000 C 395.420 370.000,395.600 369.640,395.600 369.200 C 395.600 368.760,395.780 368.400,396.000 368.400 C 396.220 368.400,396.400 367.961,396.400 367.424 C 396.400 366.887,396.580 366.336,396.800 366.200 C 397.020 366.064,397.200 365.603,397.200 365.176 C 397.200 364.749,397.380 364.400,397.600 364.400 C 397.820 364.400,398.000 363.860,398.000 363.200 C 398.000 362.540,398.180 362.000,398.400 362.000 C 398.620 362.000,398.800 361.295,398.800 360.433 C 398.800 359.536,399.013 358.796,399.300 358.700 C 399.699 358.567,399.800 326.471,399.800 200.000 C 399.800 73.529,399.699 41.433,399.300 41.300 C 399.013 41.204,398.800 40.464,398.800 39.567 C 398.800 38.705,398.620 38.000,398.400 38.000 C 398.180 38.000,398.000 37.460,398.000 36.800 C 398.000 36.140,397.820 35.600,397.600 35.600 C 397.380 35.600,397.200 35.251,397.200 34.824 C 397.200 34.397,397.020 33.936,396.800 33.800 C 396.580 33.664,396.400 33.113,396.400 32.576 C 396.400 32.039,396.220 31.600,396.000 31.600 C 395.780 31.600,395.600 31.240,395.600 30.800 C 395.600 30.360,395.454 30.000,395.275 30.000 C 395.096 30.000,394.702 29.370,394.400 28.600 C 394.098 27.830,393.704 27.200,393.525 27.200 C 393.346 27.200,393.200 26.880,393.200 26.488 C 393.200 26.097,392.840 25.517,392.400 25.200 C 391.960 24.883,391.600 24.331,391.600 23.973 C 391.600 23.615,391.240 22.907,390.800 22.400 C 390.360 21.893,390.000 21.318,390.000 21.123 C 390.000 20.489,379.705 10.487,378.738 10.182 C 378.222 10.019,377.509 9.551,377.153 9.143 C 376.797 8.734,376.278 8.400,376.000 8.400 C 375.722 8.400,375.203 8.071,374.847 7.670 C 374.491 7.268,373.615 6.684,372.900 6.372 C 372.185 6.060,371.600 5.669,371.600 5.502 C 371.600 5.336,371.240 5.200,370.800 5.200 C 370.360 5.200,370.000 5.020,370.000 4.800 C 370.000 4.580,369.640 4.400,369.200 4.400 C 368.760 4.400,368.400 4.220,368.400 4.000 C 368.400 3.780,367.961 3.600,367.424 3.600 C 366.887 3.600,366.336 3.420,366.200 3.200 C 366.064 2.980,365.603 2.800,365.176 2.800 C 364.749 2.800,364.400 2.620,364.400 2.400 C 364.400 2.180,363.860 2.000,363.200 2.000 C 362.540 2.000,362.000 1.820,362.000 1.600 C 362.000 1.380,361.295 1.200,360.433 1.200 C 359.536 1.200,358.796 0.987,358.700 0.700 C 358.544 0.230,48.871 -0.170,43.100 0.292 M116.861 75.778 C 148.454 82.474,153.951 125.567,125.000 139.586 C 101.396 151.016,74.568 133.170,76.126 107.075 C 77.358 86.424,96.760 71.518,116.861 75.778 M268.278 155.206 C 292.078 157.093,306.323 166.171,315.515 185.307 C 316.442 187.237,317.200 189.046,317.200 189.327 C 317.200 189.609,317.351 190.011,317.537 190.220 C 317.895 190.624,319.170 194.638,320.198 198.600 C 323.816 212.532,324.508 226.668,324.321 282.800 C 324.184 323.663,324.430 320.630,321.035 323.379 L 319.526 324.600 297.458 324.710 L 275.390 324.819 273.791 323.783 C 272.912 323.213,271.745 322.083,271.196 321.273 L 270.200 319.800 269.971 273.800 C 269.801 239.772,269.616 227.332,269.259 226.000 C 268.993 225.010,268.585 223.300,268.351 222.200 C 265.554 209.027,257.226 201.359,244.887 200.594 C 228.553 199.581,218.552 208.560,213.916 228.400 C 213.035 232.171,213.026 232.538,212.814 276.000 C 212.582 323.413,212.702 320.955,210.541 322.853 C 208.252 324.863,208.710 324.828,186.037 324.710 L 164.874 324.600 163.379 323.390 C 160.095 320.731,160.400 329.143,160.400 241.290 C 160.400 165.421,160.422 163.125,161.157 161.684 C 163.268 157.549,162.956 157.599,186.687 157.609 C 213.781 157.621,213.200 157.319,213.200 171.377 C 213.200 177.817,213.320 178.042,215.290 175.300 C 223.979 163.210,237.210 156.689,256.000 155.236 C 262.128 154.762,262.663 154.761,268.278 155.206 M131.403 158.346 C 133.250 159.185,135.449 161.516,135.894 163.107 C 136.062 163.708,136.200 199.030,136.200 241.600 L 136.200 319.000 135.230 320.693 C 134.697 321.624,133.527 322.884,132.630 323.493 L 131.000 324.600 110.800 324.722 C 86.864 324.866,86.298 324.760,84.195 319.728 C 83.167 317.265,83.327 164.826,84.361 162.600 C 85.336 160.499,86.548 159.276,88.558 158.363 C 91.055 157.229,128.912 157.214,131.403 158.346 " stroke="none" fill="#0077b5" fill-rule="evenodd"></path></g></svg>